# xmcd
#
# Track frame offsets: 
#        150
#        44163
#        81750
#        84537
#        116054
#        165381
#
# Disc length: 2547 seconds
#
# Revision: 0
# Processed by: cddbd v1.4PL0 Copyright (c) Steve Scherf et al.
# Submitted via: ExactAudioCopy v0.90b4
#
DISCID=4609f106
DTITLE=Walter Trout And The Free Radicals - Live Trout - CD Two
DYEAR=2000
DGENRE=Blues
TTITLE0=Finally Gotten Over You
TTITLE1=Gotta Broken Heart
TTITLE2=Walter Speaks Again
TTITLE3=I Shall Be Released
TTITLE4=Serve Me Right To Suffer
TTITLE5=Good Enough To Eat
EXTD=
EXTT0=
EXTT1=
EXTT2=
EXTT3=
EXTT4=
EXTT5=
PLAYORDER=
